HIERARCHY
ROOT simHips
{
  OFFSET -1.47454 89.5588 0.980251
  CHANNELS 6 Xposition Yposition Zposition Zrotation Xrotation Yrotation
  JOINT simSpine
  {
    OFFSET -0.000355721 21.3001 -0.016921
    CHANNELS 3 Zrotation Xrotation Yrotation
    JOINT simLeftArm
    {
      OFFSET 13.5181 21.3012 0
      CHANNELS 3 Zrotation Xrotation Yrotation
      JOINT simLeftForeArm
      {
        OFFSET 24.5783 0 0
        CHANNELS 3 Zrotation Xrotation Yrotation
        JOINT simLeftHand
        {
          OFFSET 24.5783 0 0
          CHANNELS 3 Zrotation Xrotation Yrotation
          End Site
          {
            OFFSET 7.32568 1.52588e-005 0.0169305
          }
        }
      }
    }
    JOINT simHead
    {
      OFFSET 0 27.4458 -0.00489235
      CHANNELS 3 Zrotation Xrotation Yrotation
      End Site
      {
        OFFSET 0 0 0
      }
    }
    JOINT simRightArm
    {
      OFFSET -13.5174 21.3012 0
      CHANNELS 3 Zrotation Xrotation Yrotation
      JOINT simRightForeArm
      {
        OFFSET -24.5783 0 0
        CHANNELS 3 Zrotation Xrotation Yrotation
        JOINT simRightHand
        {
          OFFSET -24.5783 0 0
          CHANNELS 3 Zrotation Xrotation Yrotation
          End Site
          {
            OFFSET -7.32568 1.52588e-005 0.0169305
          }
        }
      }
    }
  }
  JOINT simRightUpLeg
  {
    OFFSET -8.44614 -9.41038 0.835684
    CHANNELS 3 Zrotation Xrotation Yrotation
    JOINT simRightLeg
    {
      OFFSET 0 -40.9639 0
      CHANNELS 3 Zrotation Xrotation Yrotation
      JOINT simRightFoot
      {
        OFFSET 0 -40.9639 0
        CHANNELS 3 Zrotation Xrotation Yrotation
        End Site
        {
          OFFSET 0.50614 -9.67405 14.6709
        }
      }
    }
  }
  JOINT simLeftUpLeg
  {
    OFFSET 8.44614 -9.41038 0.835684
    CHANNELS 3 Zrotation Xrotation Yrotation
    JOINT simLeftLeg
    {
      OFFSET 0 -40.9639 0
      CHANNELS 3 Zrotation Xrotation Yrotation
      JOINT simLeftFoot
      {
        OFFSET 0 -40.9639 0
        CHANNELS 3 Zrotation Xrotation Yrotation
        End Site
        {
          OFFSET -0.50614 -9.67405 14.6709
        }
      }
    }
  }
}
MOTION
Frames:	28
Frame Time:	0.0333333
0.0799107 99.5306 -0.607705 7.88653e-015 4.1582e-014 1.16073e-013 -1.35533e-014 -1.03757e-013 -9.54288e-015 -64.9453 10.777 9.49545 9.04453e-008 1.03803e-009 -33.7129 -1.21155e-011 -4.13959e-010 -1.83623e-010 6.44986e-008 -4.28022e-010 4.42996 71.3991 -16.2253 -11.8117 3.51043 -2.33756 27.841 1.11675e-010 2.17327e-011 3.14584e-010 -8.21517 -15.3214 0.358996 19.639 31.6239 -11.4206 1.0929 -20.2289 0.0836003 1.41836 -18.739 -0.00869698 9.52374e-008 37.0011 -0.112846 -1.47616 -20.9024 -0.347535 
0.383388 99.2663 -0.551586 0.0120761 -0.0872739 -0.172784 -0.00886952 0.223956 -0.0420779 -64.5312 8.69784 9.43548 -0.268974 -0.033791 -35.1932 0.493288 0.223934 -0.618784 -0.226231 -1.99283 4.36855 70.6003 -16.3297 -12.2064 4.14613 -2.17615 30.2058 0.395978 -1.19308 -0.761497 -8.71441 -15.7121 0.309534 20.3809 32.5872 -12.1737 1.26814 -20.7452 0.718059 1.19134 -19.1676 -0.0246275 -0.0203034 38.1792 0.107506 -1.31224 -21.5565 -0.325565 
0.737745 99.0018 -0.583466 0.0639133 0.0491662 -0.458088 -0.0416994 0.406006 -0.0502809 -63.7076 5.38244 9.1057 -0.802678 -0.0800821 -38.1191 2.73549 1.5506 -1.26557 -0.612031 -4.85183 4.48005 68.9691 -16.9777 -12.3264 5.13172 -1.86937 33.9242 -0.180027 -2.56656 -1.52432 -9.3391 -16.4243 0.199938 21.1841 33.5339 -13.4191 1.64554 -21.1188 1.95788 0.881377 -19.8747 -0.0422313 -0.0521402 39.3085 0.462429 -1.14483 -22.11 -0.300016 
1.16737 98.8198 -0.711138 0.326993 0.527571 -1.30467 -0.217381 0.410906 0.158932 -62.4131 0.910716 8.45435 -1.55058 -0.0990227 -42.2061 7.3977 5.61015 -3.3866 -0.96632 -8.28686 5.09431 66.5056 -17.874 -11.5331 6.29166 -1.415 38.4042 -2.25396 -2.21244 -1.61865 -10.2222 -17.558 -0.0132615 21.8419 34.291 -14.2657 2.0277 -21.1158 3.41501 0.307858 -20.741 -0.0600121 -0.124087 39.9634 1.41401 -1.08405 -22.3741 -0.288635 
1.63768 98.8578 -0.890106 0.40548 1.0234 -2.93452 -0.037512 0.407941 0.660155 -60.3111 -4.7082 7.32634 -2.57989 -0.0377039 -47.84 10.1662 7.82502 -4.21043 -1.1877 -11.9588 6.44397 63.3201 -19.141 -9.37805 7.54763 -0.798484 43.4242 -5.67397 0.548546 -0.197744 -10.5543 -18.3872 -0.188736 21.6088 34.0482 -13.4252 2.13408 -20.4632 4.49056 -0.0341453 -21.2001 -0.0733274 -0.232093 39.8354 3.15592 -1.27826 -22.2644 -0.318547 
2.06416 98.9709 -1.06632 0.423011 1.46413 -4.65487 0.256528 0.40876 1.19405 -58.1925 -10.536 6.08376 -3.61396 0.127674 -53.5598 13.0605 9.67015 -5.07889 -1.25099 -15.5487 7.92956 60.2718 -20.6733 -6.6753 8.74465 -0.0746581 48.4286 -9.13984 3.42278 1.31904 -10.7797 -19.0496 -0.335243 21.3646 33.8131 -12.4957 2.25553 -19.5095 5.20411 -0.244486 -21.4531 -0.0821595 -0.330306 39.4143 4.96864 -1.53164 -22.031 -0.356959 
2.2364 99.2405 -1.18371 0.213587 1.64135 -6.03836 0.769029 0.436808 1.59891 -56.0375 -16.1981 4.5109 -4.43265 0.335611 -58.1698 18.6165 11.4815 -7.4665 -1.38679 -18.5613 9.13539 57.845 -23.1241 -3.10856 9.75315 0.654921 52.8682 -10.7053 4.6911 1.868 -11.0194 -19.1715 -0.355485 21.872 34.6638 -12.757 2.8798 -17.7107 4.54099 -0.0242112 -21.0965 -0.0710002 -0.414293 38.4434 6.39126 -1.83808 -21.5577 -0.401548 
2.11778 99.5888 -1.33574 0.199074 1.64803 -6.6796 1.00477 0.529861 1.96068 -54.7734 -22.3251 2.49615 -5.07825 0.550513 -61.8808 22.8639 12.2774 -9.89757 -1.55938 -21.663 9.56458 56.371 -26.7191 0.594001 10.6359 1.39965 56.976 -12.5981 6.79362 3.35927 -11.6214 -19.0103 -0.32618 22.9539 36.2214 -14.1087 3.83015 -15.6291 2.95989 0.150263 -20.3925 -0.0473072 -0.468712 36.9541 7.01327 -2.02464 -20.7426 -0.419072 
1.70904 99.6444 -1.60782 0.415864 1.66509 -6.32275 0.955896 0.600881 2.05639 -54.2775 -27.9018 -0.0542619 -5.59458 0.756835 -64.9111 25.5299 13.5146 -11.7154 -1.96761 -24.8534 9.20959 55.5321 -30.455 4.01347 11.3757 2.11464 60.6259 -15.6563 9.7732 6.10225 -12.4013 -18.8712 -0.306272 24.4627 38.0843 -16.8088 4.77975 -14.9055 1.50838 0.228273 -20.8309 -0.0525378 -0.478196 37.0897 6.63504 -2.12105 -19.7615 -0.428599 
1.01583 99.2763 -1.93901 0.642873 1.79573 -5.39934 0.6839 0.568286 2.11157 -54.4043 -32.1434 -3.34236 -5.89709 0.892789 -66.7177 28.059 15.0665 -13.678 -2.34794 -27.9679 8.21551 55.1197 -34.0136 6.73812 12.0439 2.84606 64.1327 -17.5919 12.2385 7.857 -12.6764 -18.4722 -0.265235 25.5204 39.2559 -19.5986 5.13435 -16.9133 0.500223 0.488032 -24.2999 -0.112741 -0.494652 41.4875 5.79288 -2.16355 -16.2563 -0.41918 
0.130951 98.6374 -2.13537 1.41859 1.56259 -3.7395 -0.163532 0.712717 1.91803 -55.5821 -35.4039 -7.39993 -6.00086 0.942082 -67.3431 29.0339 16.1859 -15.9078 -3.56115 -31.3219 6.64985 54.3981 -37.4535 8.32065 12.6781 3.63222 67.701 -18.0589 14.683 9.16344 -12.9554 -16.5931 0.0213196 25.5258 39.168 -22.5994 5.34364 -22.2718 -0.13413 0.165637 -27.6359 -0.17535 -0.529733 46.006 4.23092 -1.90762 -11.9385 -0.361359 
-0.561124 97.497 -2.24578 2.30657 1.12204 -2.22109 -0.947619 0.952745 1.83371 -57.8584 -37.8076 -12.0512 -5.96634 0.925519 -67.1346 30.2576 15.5413 -17.7358 -5.01648 -34.5751 4.97052 52.9084 -40.1666 9.69176 13.1464 4.28352 70.5303 -19.73 16.9729 10.6556 -13.5765 -14.942 0.311917 26.2067 39.7914 -25.9565 5.59432 -28.8902 -0.267841 -0.469017 -29.709 -0.275158 -0.56198 49.9363 2.79573 -1.74035 -11.8544 -0.363075 
-0.875026 95.9664 -2.22794 2.92213 0.0238485 -1.43132 -1.27178 1.39574 1.88799 -60.5013 -39.5154 -16.5219 -5.85006 0.870889 -66.4351 32.5414 14.9268 -19.7589 -5.68179 -37.0086 4.65555 51.5987 -41.9333 12.3399 13.2317 4.40983 71.0675 -22.0268 19.144 13.1823 -14.6832 -14.3403 0.551124 28.9478 42.4879 -29.3168 5.85184 -34.2286 0.0842215 -0.799809 -31.107 -0.206801 -0.885944 54.5123 2.09153 -1.5222 -13.5986 -0.411492 
-0.903499 94.0167 -1.91082 2.94108 -1.64692 -1.5987 -0.957501 1.41311 1.95592 -63.4235 -41.3441 -20.7911 -5.73101 0.816739 -65.7228 32.5756 14.2356 -20.9364 -5.37856 -38.005 5.56086 51.1005 -42.3146 17.0723 12.955 4.00919 69.3511 -23.3164 20.9061 14.5913 -15.8866 -14.6105 0.78187 33.9971 46.8569 -32.6803 5.78798 -37.8168 0.550357 0.735068 -33.7483 0.886467 -2.84853 61.5904 2.63644 -0.946169 -15.6599 -0.646379 
-0.971556 92.0947 -1.49555 2.57279 -4.14264 -2.50903 -0.47737 1.5866 2.22787 -65.6337 -42.2719 -25.264 -5.48427 0.710084 -64.2584 33.6881 13.7132 -22.7368 -4.30346 -37.9548 6.99799 51.7843 -41.5848 23.0742 12.4442 3.33053 66.3533 -23.7778 21.3183 15.6406 -16.5637 -13.7013 1.34315 38.9981 50.4555 -35.4178 5.23807 -40.9781 0.782187 3.15885 -33.4731 2.80114 -3.2766 65.3234 2.49556 -2.01317 -20.9933 -2.422 
-1.25175 90.8638 -1.10756 2.61799 -7.02644 -2.30599 -0.520491 1.87266 2.20349 -67.6197 -41.2218 -30.2414 -5.09001 0.554843 -61.949 34.7718 12.9733 -24.8453 -4.00986 -36.9706 7.4628 53.2324 -40.7321 28.0326 11.8783 2.65633 63.2421 -25.8825 21.8056 18.6464 -16.8386 -11.3059 2.29318 42.1771 52.3196 -38.0872 5.42175 -43.1967 1.13636 4.80538 -30.5919 4.71007 -1.54626 64.7351 -0.262876 -3.55985 -25.9415 -5.12652 
-1.43992 90.0718 -0.34503 3.14367 -10.4589 -0.480609 -0.790694 1.98648 1.63912 -68.9077 -38.2139 -34.7201 -4.68708 0.414784 -59.6232 35.319 12.3699 -25.9965 -4.43964 -34.5925 6.93682 54.4714 -39.7789 31.3711 11.282 2.01895 60.1513 -27.8607 21.999 21.167 -16.7726 -7.05921 3.69719 43.5691 52.9086 -41.0129 7.22232 -45.132 2.12302 5.34768 -26.4226 6.01583 0.118205 63.3429 -4.08475 -4.07747 -29.6618 -7.23896 
-1.4661 89.6189 0.570105 3.22763 -13.6628 0.72357 -0.653641 1.76444 1.32272 -68.6542 -35.1982 -37.8674 -4.34343 0.309512 -57.6627 36.135 12.2432 -27.4244 -4.55129 -32.0872 6.79869 55.5593 -37.9725 33.9879 10.7107 1.46792 57.3356 -27.4718 21.9054 20.9645 -16.2198 -2.51934 4.9113 43.3913 52.7191 -41.9948 8.71535 -46.3183 2.91059 5.54323 -22.7531 5.9562 0.330939 64.0989 -5.44964 -3.72269 -31.2963 -7.71614 
-1.48085 89.6078 1.35479 2.87666 -16.2878 0.456152 -0.401718 1.36783 1.6998 -67.3615 -33.0109 -39.9932 -4.08323 0.238275 -56.191 36.7412 12.0108 -28.4269 -4.16454 -30.2362 7.00043 56.5541 -35.4478 36.3207 10.1188 0.950374 54.5414 -26.1447 21.6299 20.3022 -15.6685 1.41066 5.79505 41.9177 51.9546 -40.4942 8.91088 -46.5648 2.98942 5.85574 -19.1024 5.68503 0.364704 64.0745 -5.51179 -3.85728 -32.3124 -7.75308 
-1.48998 90.0272 1.9851 2.45372 -18.5022 -0.515602 -0.245989 0.970054 2.25042 -66.1639 -31.7605 -41.4844 -3.94381 0.203033 -55.4063 36.389 11.9484 -29.2424 -3.428 -29.1761 7.7248 57.2737 -32.4916 38.5777 9.35736 0.354342 51.0976 -25.2986 21.8941 20.5437 -15.3324 4.98172 6.51776 39.4245 50.5875 -37.5509 8.46996 -46.0255 2.65441 5.96837 -15.28 5.48507 0.417943 62.8035 -5.07032 -4.26527 -32.6886 -7.64354 
-1.51044 90.8185 2.41524 2.22276 -20.3095 -1.1555 -0.188655 0.685729 2.38965 -65.4931 -30.9757 -42.901 -3.82614 0.174884 -54.7462 36.3396 12.2171 -30.0154 -3.14951 -28.4714 8.17349 57.5783 -29.6921 40.6731 8.395 -0.301012 46.9406 -24.3819 21.9826 20.4068 -14.992 8.34729 7.03773 36.2069 48.5334 -34.4489 8.1916 -44.8272 2.28447 5.83742 -11.5758 5.37472 0.510037 60.3971 -4.65246 -4.64421 -32.1811 -7.717 
-1.54479 91.7964 2.6742 2.11374 -21.4509 -1.24673 -0.197349 0.239053 2.28479 -64.7349 -30.121 -44.425 -3.6747 0.140722 -53.8989 36.1192 11.9623 -30.1396 -3.23767 -27.9526 8.24573 57.4511 -27.486 42.3945 7.26752 -0.947956 42.2866 -23.2929 21.3055 20.4673 -14.4283 11.1245 7.21108 32.9177 46.0736 -31.9285 8.18573 -43.29 1.97885 5.70696 -8.63604 5.33892 0.650225 57.5362 -4.73076 -4.72282 -31.1361 -7.68651 
-1.60374 92.9571 2.73443 2.01705 -21.9823 -1.18376 -0.247125 -0.190177 2.18295 -64.1976 -29.5176 -45.6064 -3.61165 0.127186 -53.5468 35.776 11.6184 -30.0104 -3.56748 -27.8968 8.12185 56.8859 -25.9068 43.1996 6.40959 -1.36283 38.8673 -22.3007 20.606 20.2672 -13.6351 13.3846 7.07534 29.4379 43.0647 -29.5166 8.15156 -41.277 1.60368 5.60291 -6.17184 5.36194 0.755004 53.8985 -4.85756 -4.75462 -29.4475 -7.59029 
-1.69944 94.3699 2.49267 1.87417 -21.695 -1.06918 -0.327078 -0.488413 2.1714 -64.212 -29.3265 -46.161 -3.72446 0.151676 -54.1769 35.2845 11.3162 -29.6692 -4.21128 -28.7692 7.78875 55.7502 -25.0719 42.4784 6.15473 -1.47415 37.8684 -21.619 20.2496 19.5742 -12.507 14.9196 6.5415 25.6943 39.2861 -27.1126 7.96614 -38.5777 1.08442 5.58093 -4.09038 5.52694 0.819763 48.7573 -4.93888 -4.95956 -26.9509 -7.5669 
-1.81258 95.9044 2.1151 1.71513 -21.0075 -0.91303 -0.428564 -0.748851 2.19883 -64.4806 -29.3008 -46.4414 -3.91387 0.195735 -55.2382 34.7246 11.0145 -29.2185 -5.01903 -29.9917 7.33722 54.4536 -24.5418 41.0609 6.1777 -1.46433 37.9582 -21.0555 19.9845 18.6425 -11.1781 16.128 5.81446 22.0254 35.0237 -25.0013 7.76125 -35.5243 0.517691 5.57203 -2.30554 5.72231 0.843986 43.0969 -5.05354 -5.17454 -24.0326 -7.53612 
-1.94392 97.5313 1.67971 1.55055 -19.9936 -0.748293 -0.582774 -1.07757 2.31071 -64.8754 -29.382 -46.498 -4.15576 0.257417 -56.6003 34.1218 10.7515 -28.7616 -5.89198 -30.9695 6.80128 53.4037 -24.2409 39.1392 6.43628 -1.35086 38.9723 -20.4501 19.589 17.3578 -9.65563 17.1945 4.95993 18.3542 30.1658 -23.1302 7.57347 -32.0912 -0.0814931 5.46007 -1.21491 5.7152 0.871254 37.9264 -5.16942 -5.08462 -20.4102 -7.14151 
-2.16717 99.6074 0.978829 1.37167 -17.3749 -0.553826 -1.00391 -1.78469 2.86033 -65.8606 -29.9933 -45.4451 -4.65215 0.403479 -59.423 33.2896 10.7095 -28.3001 -6.94304 -30.5223 5.92261 53.4944 -25.22 34.6583 7.82048 -0.645882 44.5436 -19.6109 18.4651 14.2812 -7.35907 17.5331 3.57706 13.5617 22.8109 -21.0452 7.32119 -26.852 -0.905701 4.74433 -3.48138 4.60959 1.1592 35.0306 -5.05659 -3.74534 -12.8706 -4.84909 
-2.61123 101.077 -0.0699181 1.50475 -13.6877 -0.530461 -1.63913 -2.56308 3.44555 -67.1555 -31.871 -44.3053 -5.18677 0.59123 -62.5123 32.9096 11.0471 -27.8509 -7.80049 -29.6225 5.58137 53.478 -26.3039 30.7307 9.06214 0.14232 49.8013 -19.6434 17.7092 12.013 -5.99873 15.368 2.6782 10.9964 17.4245 -20.1516 6.57766 -22.7179 -1.58185 3.93866 -7.79847 3.3565 1.36788 33.9189 -4.63058 -3.15258 -6.90168 -2.7706 
